<svg width="800" height="800" viewBox="0 0 800 800" xmlns="http://www.w3.org/2000/svg">
  <!-- Viền ngoài viên thuốc -->
  <path d="M400 750C589.746 750 750 600.751 750 400C750 199.249 589.746 50 400 50C210.254 50 50 199.249 50 400C50 600.751 210.254 750 400 750Z" fill="#941C48" />
  
  <!-- Phần thân viên thuốc -->
  <path d="M400 700C562.171 700 700 551.651 700 400C700 248.349 562.171 100 400 100C237.829 100 100 248.349 100 400C100 551.651 237.829 700 400 700Z" fill="#FFC629" />
  
  <!-- Điểm sáng trên viên thuốc -->
  <path d="M250 300C250 300 300 150 450 200C600 250 650 350 600 550C550 750 400 700 250 300Z" fill="white" opacity="0.3" />
</svg> 